<svg width="32" height="32" viewBox="0 0 32 32" fill="none" xmlns="http://www.w3.org/2000/svg">
<path d="M9.33301 14.6665H11.9997V17.3332H9.33301V14.6665ZM9.33301 19.9998H11.9997V22.6665H9.33301V19.9998ZM14.6663 14.6665H17.333V17.3332H14.6663V14.6665ZM14.6663 19.9998H17.333V22.6665H14.6663V19.9998ZM19.9997 14.6665H22.6663V17.3332H19.9997V14.6665ZM19.9997 19.9998H22.6663V22.6665H19.9997V19.9998Z" fill="#F2F2F2"/>
<path d="M6.66667 29.3332H25.3333C26.804 29.3332 28 28.1372 28 26.6665V7.99984C28 6.52917 26.804 5.33317 25.3333 5.33317H22.6667V2.6665H20V5.33317H12V2.6665H9.33333V5.33317H6.66667C5.196 5.33317 4 6.52917 4 7.99984V26.6665C4 28.1372 5.196 29.3332 6.66667 29.3332ZM25.3333 10.6665L25.3347 26.6665H6.66667V10.6665H25.3333Z" fill="#F2F2F2"/>
</svg>
