<svg width="34" height="34" viewBox="0 0 34 34" fill="none" xmlns="http://www.w3.org/2000/svg">
<path d="M28.6865 12.7501C28.6876 10.7804 28.191 8.84246 27.2426 7.11615C26.2943 5.38984 24.9251 3.9312 23.2621 2.87572C21.5992 1.82023 19.6964 1.20213 17.7306 1.07883C15.7649 0.955536 13.7998 1.33104 12.018 2.17047C10.2362 3.0099 8.69544 4.28602 7.53883 5.8803C6.38222 7.47458 5.64729 9.33531 5.40229 11.2897C5.1573 13.244 5.41019 15.2286 6.13748 17.059C6.86476 18.8895 8.04285 20.5064 9.56232 21.7597V31.8751C9.56233 32.0562 9.60863 32.2343 9.69683 32.3925C9.78503 32.5507 9.9122 32.6837 10.0663 32.7789C10.2203 32.8741 10.3962 32.9283 10.5771 32.9365C10.758 32.9446 10.938 32.9064 11.1 32.8253L16.9989 29.8756L22.8997 32.8253C23.0617 32.9063 23.2417 32.9445 23.4226 32.9364C23.6035 32.9282 23.7794 32.874 23.9334 32.7788C24.0875 32.6836 24.2146 32.5506 24.3028 32.3924C24.391 32.2343 24.4373 32.0562 24.4373 31.8751V21.7585C25.7664 20.6635 26.8367 19.2879 27.5714 17.7304C28.306 16.1729 28.6868 14.4721 28.6865 12.7501ZM7.43652 12.7501C7.43652 10.8588 7.99736 9.00998 9.0481 7.43744C10.0988 5.86489 11.5923 4.63924 13.3396 3.91548C15.0869 3.19172 17.0096 3.00235 18.8646 3.37132C20.7195 3.74029 22.4234 4.65103 23.7607 5.98837C25.0981 7.32571 26.0088 9.02958 26.3778 10.8845C26.7467 12.7395 26.5574 14.6622 25.8336 16.4095C25.1099 18.1568 23.8842 19.6503 22.3117 20.701C20.7391 21.7517 18.8903 22.3126 16.999 22.3126C14.4638 22.3097 12.0332 21.3013 10.2405 19.5086C8.44776 17.7159 7.43937 15.2853 7.43652 12.7501ZM22.3123 30.1561L17.474 27.7372C17.3264 27.6634 17.1637 27.625 16.9988 27.625C16.8338 27.625 16.6711 27.6634 16.5236 27.7372L11.6873 30.1558V23.1594C13.3321 23.9997 15.1529 24.4378 16.9999 24.4377C18.847 24.4376 20.6676 23.9992 22.3123 23.1586V30.1561ZM16.999 20.1876C18.47 20.1876 19.908 19.7514 21.1311 18.9341C22.3542 18.1169 23.3074 16.9553 23.8704 15.5963C24.4333 14.2373 24.5806 12.7418 24.2936 11.2991C24.0066 9.85636 23.2983 8.53112 22.2581 7.49097C21.218 6.45082 19.8927 5.74246 18.45 5.45549C17.0073 5.16851 15.5118 5.31579 14.1528 5.87872C12.7938 6.44165 11.6322 7.39493 10.815 8.61802C9.99773 9.84111 9.56152 11.2791 9.56152 12.7501C9.56374 14.7219 10.348 16.6124 11.7424 18.0067C13.1367 19.4011 15.0272 20.1854 16.999 20.1876ZM16.999 7.43758C18.0497 7.43758 19.0769 7.74915 19.9505 8.33289C20.8241 8.91664 21.505 9.74634 21.9071 10.7171C22.3092 11.6878 22.4144 12.756 22.2094 13.7865C22.0045 14.817 21.4985 15.7636 20.7555 16.5066C20.0126 17.2495 19.066 17.7555 18.0354 17.9605C17.0049 18.1655 15.9367 18.0603 14.966 17.6582C13.9953 17.2561 13.1656 16.5752 12.5818 15.7015C11.9981 14.8279 11.6865 13.8008 11.6865 12.7501C11.6881 11.3416 12.2484 9.99129 13.2443 8.99536C14.2402 7.99942 15.5906 7.43919 16.999 7.43758Z" fill="#F2F2F2"/>
</svg>
