<svg width="35" height="35" viewBox="0 0 35 35" fill="none" xmlns="http://www.w3.org/2000/svg">
<path d="M30.6248 5.83325H4.37484C3.98806 5.83325 3.61713 5.9869 3.34364 6.26039C3.07015 6.53388 2.9165 6.90481 2.9165 7.29159V27.7083C2.9165 28.095 3.07015 28.466 3.34364 28.7394C3.61713 29.0129 3.98806 29.1666 4.37484 29.1666H30.6248C31.0116 29.1666 31.3825 29.0129 31.656 28.7394C31.9295 28.466 32.0832 28.095 32.0832 27.7083V7.29159C32.0832 6.90481 31.9295 6.53388 31.656 6.26039C31.3825 5.9869 31.0116 5.83325 30.6248 5.83325V5.83325Z" stroke="#F2F2F2" stroke-width="3"/>
<path d="M17.5 12.3958V22.6041" stroke="#F2F2F2" stroke-width="3" stroke-linecap="round"/>
<path d="M23.333 17.5V22.6042" stroke="#F2F2F2" stroke-width="3" stroke-linecap="round"/>
<path d="M11.6665 16.0415V22.604" stroke="#F2F2F2" stroke-width="3" stroke-linecap="round"/>
</svg>
